{
  "accessors": [
    {
      "bufferView": 2,
      "componentType": 5126,
      "count": 65533,
      "max": [
        1.4405368566513062,
        1.6727874279022217,
        4.212117671966553
      ],
      "min": [
        -1.0160233974456787,
        -2.242469310760498,
        0.6965028643608093
      ],
      "type": "VEC3"
    },
    {
      "bufferView": 2,
      "byteOffset": 786396,
      "componentType": 5126,
      "count": 65533,
      "max": [
        1.0,
        1.0,
        1.0
      ],
      "min": [
        -1.0,
        -1.0,
        -1.0
      ],
      "type": "VEC3"
    },
    {
      "bufferView": 3,
      "componentType": 5126,
      "count": 65533,
      "max": [
        0.9999975562095642,
        0.9999998211860657,
        0.9999406337738037,
        1.0
      ],
      "min": [
        -0.9999975562095642,
        -0.9999991059303284,
        -0.9999986886978149,
        -1.0
      ],
      "type": "VEC4"
    },
    {
      "bufferView": 1,
      "componentType": 5126,
      "count": 65533,
      "max": [
        0.9551947116851807,
        0.999755859375
      ],
      "min": [
        0.006447914056479931,
        0.00024443864822387695
      ],
      "type": "VEC2"
    },
    {
      "bufferView": 1,
      "byteOffset": 524264,
      "componentType": 5126,
      "count": 65533,
      "max": [
        0.9551947116851807,
        0.999755859375
      ],
      "min": [
        0.006447914056479931,
        0.00024443864822387695
      ],
      "type": "VEC2"
    },
    {
      "bufferView": 1,
      "byteOffset": 1048528,
      "componentType": 5126,
      "count": 65533,
      "max": [
        0.9551947116851807,
        0.999755859375
      ],
      "min": [
        0.006447914056479931,
        0.00024443864822387695
      ],
      "type": "VEC2"
    },
    {
      "bufferView": 1,
      "byteOffset": 1572792,
      "componentType": 5126,
      "count": 65533,
      "max": [
        0.9551947116851807,
        0.999755859375
      ],
      "min": [
        0.006447914056479931,
        0.00024443864822387695
      ],
      "type": "VEC2"
    },
    {
      "bufferView": 0,
      "componentType": 5125,
      "count": 293220,
      "type": "SCALAR"
    },
    {
      "bufferView": 2,
      "byteOffset": 1572792,
      "componentType": 5126,
      "count": 65532,
      "max": [
        1.4400471448898315,
        1.6811707019805908,
        4.208380699157715
      ],
      "min": [
        -1.4408743381500244,
        -2.291563034057617,
        -0.002104897052049637
      ],
      "type": "VEC3"
    },
    {
      "bufferView": 2,
      "byteOffset": 2359176,
      "componentType": 5126,
      "count": 65532,
      "max": [
        1.0,
        1.0,
        1.0
      ],
      "min": [
        -1.0,
        -1.0,
        -1.0
      ],
      "type": "VEC3"
    },
    {
      "bufferView": 3,
      "byteOffset": 1048528,
      "componentType": 5126,
      "count": 65532,
      "max": [
        0.9999969005584717,
        1.0,
        0.9999998807907104,
        1.0
      ],
      "min": [
        -1.0,
        -0.999999463558197,
        -0.9999982714653015,
        -1.0
      ],
      "type": "VEC4"
    },
    {
      "bufferView": 1,
      "byteOffset": 2097056,
      "componentType": 5126,
      "count": 65532,
      "max": [
        0.9908145070075989,
        0.9996797442436218
      ],
      "min": [
        0.00026241422165185213,
        0.000244140625
      ],
      "type": "VEC2"
    },
    {
      "bufferView": 1,
      "byteOffset": 2621312,
      "componentType": 5126,
      "count": 65532,
      "max": [
        0.9908145070075989,
        0.9996797442436218
      ],
      "min": [
        0.00026241422165185213,
        0.000244140625
      ],
      "type": "VEC2"
    },
    {
      "bufferView": 1,
      "byteOffset": 3145568,
      "componentType": 5126,
      "count": 65532,
      "max": [
        0.9908145070075989,
        0.9996797442436218
      ],
      "min": [
        0.00026241422165185213,
        0.000244140625
      ],
      "type": "VEC2"
    },
    {
      "bufferView": 1,
      "byteOffset": 3669824,
      "componentType": 5126,
      "count": 65532,
      "max": [
        0.9908145070075989,
        0.9996797442436218
      ],
      "min": [
        0.00026241422165185213,
        0.000244140625
      ],
      "type": "VEC2"
    },
    {
      "bufferView": 0,
      "byteOffset": 1172880,
      "componentType": 5125,
      "count": 285237,
      "type": "SCALAR"
    },
    {
      "bufferView": 2,
      "byteOffset": 3145560,
      "componentType": 5126,
      "count": 52505,
      "max": [
        1.3911322355270386,
        1.6600526571273804,
        3.971745729446411
      ],
      "min": [
        -1.3914697170257568,
        -2.290436267852783,
        -0.0021044202148914337
      ],
      "type": "VEC3"
    },
    {
      "bufferView": 2,
      "byteOffset": 3775620,
      "componentType": 5126,
      "count": 52505,
      "max": [
        1.0,
        1.0,
        1.0
      ],
      "min": [
        -1.0,
        -1.0,
        -1.0
      ],
      "type": "VEC3"
    },
    {
      "bufferView": 3,
      "byteOffset": 2097040,
      "componentType": 5126,
      "count": 52505,
      "max": [
        1.0,
        1.0,
        1.0,
        1.0
      ],
      "min": [
        -1.0,
        -1.0,
        -1.0,
        -1.0
      ],
      "type": "VEC4"
    },
    {
      "bufferView": 1,
      "byteOffset": 4194080,
      "componentType": 5126,
      "count": 52505,
      "max": [
        0.9822741746902466,
        0.9996981620788574
      ],
      "min": [
        0.00026241422165185213,
        0.00024443864822387695
      ],
      "type": "VEC2"
    },
    {
      "bufferView": 1,
      "byteOffset": 4614120,
      "componentType": 5126,
      "count": 52505,
      "max": [
        0.9822741746902466,
        0.9996981620788574
      ],
      "min": [
        0.00026241422165185213,
        0.00024443864822387695
      ],
      "type": "VEC2"
    },
    {
      "bufferView": 1,
      "byteOffset": 5034160,
      "componentType": 5126,
      "count": 52505,
      "max": [
        0.9822741746902466,
        0.9996981620788574
      ],
      "min": [
        0.00026241422165185213,
        0.00024443864822387695
      ],
      "type": "VEC2"
    },
    {
      "bufferView": 1,
      "byteOffset": 5454200,
      "componentType": 5126,
      "count": 52505,
      "max": [
        0.9822741746902466,
        0.9996981620788574
      ],
      "min": [
        0.00026241422165185213,
        0.00024443864822387695
      ],
      "type": "VEC2"
    },
    {
      "bufferView": 0,
      "byteOffset": 2313828,
      "componentType": 5125,
      "count": 190572,
      "type": "SCALAR"
    }
  ],
  "asset": {
    "extras": {
      "author": "Seesha (https://sketchfab.com/Seesha)",
      "license": "CC-BY-4.0 (http://creativecommons.org/licenses/by/4.0/)",
      "source": "https://sketchfab.com/3d-models/scifi-chair-concept-c741dcd8720f4a629de8681bdcd4529b",
      "title": "Scifi Chair Concept"
    },
    "generator": "Sketchfab-16.23.0",
    "version": "2.0"
  },
  "bufferViews": [
    {
      "buffer": 0,
      "byteLength": 3076116,
      "name": "floatBufferViews",
      "target": 34963
    },
    {
      "buffer": 0,
      "byteLength": 5874240,
      "byteOffset": 3076116,
      "byteStride": 8,
      "name": "floatBufferViews",
      "target": 34962
    },
    {
      "buffer": 0,
      "byteLength": 4405680,
      "byteOffset": 8950356,
      "byteStride": 12,
      "name": "floatBufferViews",
      "target": 34962
    },
    {
      "buffer": 0,
      "byteLength": 2937120,
      "byteOffset": 13356036,
      "byteStride": 16,
      "name": "floatBufferViews",
      "target": 34962
    }
  ],
  "buffers": [
    {
      "byteLength": 16293156,
      "uri": "scene.bin"
    }
  ],
  "extensionsUsed": [
    "KHR_materials_emissive_strength",
    "KHR_materials_specular"
  ],
  "images": [
    {
      "uri": "textures/Material_baseColor.jpeg"
    },
    {
      "uri": "textures/Material_metallicRoughness.png"
    },
    {
      "uri": "textures/Material_emissive.jpeg"
    },
    {
      "uri": "textures/Material_normal.png"
    }
  ],
  "materials": [
    {
      "doubleSided": true,
      "emissiveFactor": [
        1.0,
        1.0,
        1.0
      ],
      "emissiveTexture": {
        "index": 2,
        "texCoord": 1
      },
      "extensions": {
        "KHR_materials_emissive_strength": {
          "emissiveStrength": 4.623383785264538
        },
        "KHR_materials_specular": {
          "specularColorFactor": [
            1.0,
            1.0,
            1.0
          ],
          "specularFactor": 0.9363238672784137
        }
      },
      "name": "Material",
      "normalTexture": {
        "index": 3,
        "texCoord": 2
      },
      "pbrMetallicRoughness": {
        "baseColorTexture": {
          "index": 0
        },
        "metallicRoughnessTexture": {
          "index": 1
        },
        "roughnessFactor": 0.7783287043610937
      }
    }
  ],
  "meshes": [
    {
      "name": "Plane.013_Material_0",
      "primitives": [
        {
          "attributes": {
            "NORMAL": 1,
            "POSITION": 0,
            "TANGENT": 2,
            "TEXCOORD_0": 3,
            "TEXCOORD_1": 4,
            "TEXCOORD_2": 5,
            "TEXCOORD_3": 6
          },
          "indices": 7,
          "material": 0,
          "mode": 4
        }
      ]
    },
    {
      "name": "Plane.013_Material_0",
      "primitives": [
        {
          "attributes": {
            "NORMAL": 9,
            "POSITION": 8,
            "TANGENT": 10,
            "TEXCOORD_0": 11,
            "TEXCOORD_1": 12,
            "TEXCOORD_2": 13,
            "TEXCOORD_3": 14
          },
          "indices": 15,
          "material": 0,
          "mode": 4
        }
      ]
    },
    {
      "name": "Plane.013_Material_0",
      "primitives": [
        {
          "attributes": {
            "NORMAL": 17,
            "POSITION": 16,
            "TANGENT": 18,
            "TEXCOORD_0": 19,
            "TEXCOORD_1": 20,
            "TEXCOORD_2": 21,
            "TEXCOORD_3": 22
          },
          "indices": 23,
          "material": 0,
          "mode": 4
        }
      ]
    }
  ],
  "nodes": [
    {
      "children": [
        1
      ],
      "matrix": [
        1.0,
        0.0,
        0.0,
        0.0,
        0.0,
        2.220446049250313e-16,
        -1.0,
        0.0,
        0.0,
        1.0,
        2.220446049250313e-16,
        0.0,
        0.0,
        0.0,
        0.0,
        1.0
      ],
      "name": "Sketchfab_model"
    },
    {
      "children": [
        2
      ],
      "matrix": [
        0.009999999776482582,
        0.0,
        0.0,
        0.0,
        0.0,
        0.0,
        0.009999999776482582,
        0.0,
        0.0,
        -0.009999999776482582,
        0.0,
        0.0,
        0.0,
        0.0,
        0.0,
        1.0
      ],
      "name": "4toto_chair_01.fbx"
    },
    {
      "children": [
        3
      ],
      "name": "RootNode"
    },
    {
      "children": [
        4,
        5,
        6
      ],
      "matrix": [
        100.0,
        0.0,
        0.0,
        0.0,
        0.0,
        -1.629206793918314e-05,
        -99.99999999999868,
        0.0,
        0.0,
        99.99999999999868,
        -1.629206793918314e-05,
        0.0,
        20.55511474609375,
        -246.4569091796875,
        -5084.513671875,
        1.0
      ],
      "name": "Plane.013"
    },
    {
      "mesh": 0,
      "name": "Plane.013_Material_0"
    },
    {
      "mesh": 1,
      "name": "Plane.013_Material_0"
    },
    {
      "mesh": 2,
      "name": "Plane.013_Material_0"
    }
  ],
  "samplers": [
    {
      "magFilter": 9729,
      "minFilter": 9987,
      "wrapS": 10497,
      "wrapT": 10497
    }
  ],
  "scene": 0,
  "scenes": [
    {
      "name": "Sketchfab_Scene",
      "nodes": [
        0
      ]
    }
  ],
  "textures": [
    {
      "sampler": 0,
      "source": 0
    },
    {
      "sampler": 0,
      "source": 1
    },
    {
      "sampler": 0,
      "source": 2
    },
    {
      "sampler": 0,
      "source": 3
    }
  ]
}
